<svg width="48" height="48" viewBox="0 0 48 48" fill="none" xmlns="http://www.w3.org/2000/svg">
<g filter="url(#filter0_d_94_5629)">
<circle cx="24" cy="20" r="20" fill="white"/>
</g>
<g clip-path="url(#clip0_94_5629)">
<path d="M24.5 7C25.3643 7 26.0625 7.69824 26.0625 8.5625V10.2568C29.9883 10.9111 33.0889 14.0117 33.7432 17.9375H35.4375C36.3018 17.9375 37 18.6357 37 19.5C37 20.3643 36.3018 21.0625 35.4375 21.0625H33.7432C33.0889 24.9883 29.9883 28.0889 26.0625 28.7432V30.4375C26.0625 31.3018 25.3643 32 24.5 32C23.6357 32 22.9375 31.3018 22.9375 30.4375V28.7432C19.0117 28.0889 15.9111 24.9883 15.2568 21.0625H13.5625C12.6982 21.0625 12 20.3643 12 19.5C12 18.6357 12.6982 17.9375 13.5625 17.9375H15.2568C15.9111 14.0117 19.0117 10.9111 22.9375 10.2568V8.5625C22.9375 7.69824 23.6357 7 24.5 7ZM18.25 19.5C18.25 21.1576 18.9085 22.7473 20.0806 23.9194C21.2527 25.0915 22.8424 25.75 24.5 25.75C26.1576 25.75 27.7473 25.0915 28.9194 23.9194C30.0915 22.7473 30.75 21.1576 30.75 19.5C30.75 17.8424 30.0915 16.2527 28.9194 15.0806C27.7473 13.9085 26.1576 13.25 24.5 13.25C22.8424 13.25 21.2527 13.9085 20.0806 15.0806C18.9085 16.2527 18.25 17.8424 18.25 19.5ZM24.5 15.5938C25.536 15.5938 26.5296 16.0053 27.2621 16.7379C27.9947 17.4704 28.4062 18.464 28.4062 19.5C28.4062 20.536 27.9947 21.5296 27.2621 22.2621C26.5296 22.9947 25.536 23.4062 24.5 23.4062C23.464 23.4062 22.4704 22.9947 21.7379 22.2621C21.0053 21.5296 20.5938 20.536 20.5938 19.5C20.5938 18.464 21.0053 17.4704 21.7379 16.7379C22.4704 16.0053 23.464 15.5938 24.5 15.5938Z" fill="black"/>
</g>
<defs>
<filter id="filter0_d_94_5629" x="0" y="0" width="48" height="48" filterUnits="userSpaceOnUse" color-interpolation-filters="sRGB">
<feFlood flood-opacity="0" result="BackgroundImageFix"/>
<feColorMatrix in="SourceAlpha" type="matrix" values="0 0 0 0 0 0 0 0 0 0 0 0 0 0 0 0 0 0 127 0" result="hardAlpha"/>
<feOffset dy="4"/>
<feGaussianBlur stdDeviation="2"/>
<feComposite in2="hardAlpha" operator="out"/>
<feColorMatrix type="matrix" values="0 0 0 0 0 0 0 0 0 0 0 0 0 0 0 0 0 0 0.25 0"/>
<feBlend mode="normal" in2="BackgroundImageFix" result="effect1_dropShadow_94_5629"/>
<feBlend mode="normal" in="SourceGraphic" in2="effect1_dropShadow_94_5629" result="shape"/>
</filter>
<clipPath id="clip0_94_5629">
<rect width="25" height="25" fill="white" transform="translate(12 7)"/>
</clipPath>
</defs>
</svg>
