<svg width="48" height="48" viewBox="0 0 48 48" fill="none" xmlns="http://www.w3.org/2000/svg">
<g filter="url(#filter0_d_94_5614)">
<circle cx="24" cy="20" r="20" fill="white"/>
</g>
<path d="M17 13.5226C17 12.7506 17.5372 12.127 18.2022 12.127H32.6282C33.2931 12.127 33.8304 12.7506 33.8304 13.5226C33.8304 14.2946 33.2931 14.9183 32.6282 14.9183H18.2022C17.5372 14.9183 17 14.2946 17 13.5226ZM17 20.501C17 19.729 17.5372 19.1053 18.2022 19.1053H32.6282C33.2931 19.1053 33.8304 19.729 33.8304 20.501C33.8304 21.273 33.2931 21.8966 32.6282 21.8966H18.2022C17.5372 21.8966 17 21.273 17 20.501ZM33.8304 27.4793C33.8304 28.2513 33.2931 28.875 32.6282 28.875H18.2022C17.5372 28.875 17 28.2513 17 27.4793C17 26.7073 17.5372 26.0837 18.2022 26.0837H32.6282C33.2931 26.0837 33.8304 26.7073 33.8304 27.4793Z" fill="black"/>
<defs>
<filter id="filter0_d_94_5614" x="0" y="0" width="48" height="48" filterUnits="userSpaceOnUse" color-interpolation-filters="sRGB">
<feFlood flood-opacity="0" result="BackgroundImageFix"/>
<feColorMatrix in="SourceAlpha" type="matrix" values="0 0 0 0 0 0 0 0 0 0 0 0 0 0 0 0 0 0 127 0" result="hardAlpha"/>
<feOffset dy="4"/>
<feGaussianBlur stdDeviation="2"/>
<feComposite in2="hardAlpha" operator="out"/>
<feColorMatrix type="matrix" values="0 0 0 0 0 0 0 0 0 0 0 0 0 0 0 0 0 0 0.25 0"/>
<feBlend mode="normal" in2="BackgroundImageFix" result="effect1_dropShadow_94_5614"/>
<feBlend mode="normal" in="SourceGraphic" in2="effect1_dropShadow_94_5614" result="shape"/>
</filter>
</defs>
</svg>
