<svg width="63" height="63" viewBox="0 0 63 63" fill="none" xmlns="http://www.w3.org/2000/svg">
<g filter="url(#filter0_d_92_5604)">
<circle cx="31.5" cy="27.5" r="27.5" fill="white"/>
</g>
<path d="M33.8573 16.1562C33.8573 15.0154 32.8039 14.0938 31.5001 14.0938C30.1963 14.0938 29.143 15.0154 29.143 16.1562V25.4375H18.5359C17.2321 25.4375 16.1787 26.3592 16.1787 27.5C16.1787 28.6408 17.2321 29.5625 18.5359 29.5625H29.143V38.8438C29.143 39.9846 30.1963 40.9062 31.5001 40.9062C32.8039 40.9062 33.8573 39.9846 33.8573 38.8438V29.5625H44.4644C45.7682 29.5625 46.8216 28.6408 46.8216 27.5C46.8216 26.3592 45.7682 25.4375 44.4644 25.4375H33.8573V16.1562Z" fill="black"/>
<defs>
<filter id="filter0_d_92_5604" x="0" y="0" width="63" height="63" filterUnits="userSpaceOnUse" color-interpolation-filters="sRGB">
<feFlood flood-opacity="0" result="BackgroundImageFix"/>
<feColorMatrix in="SourceAlpha" type="matrix" values="0 0 0 0 0 0 0 0 0 0 0 0 0 0 0 0 0 0 127 0" result="hardAlpha"/>
<feOffset dy="4"/>
<feGaussianBlur stdDeviation="2"/>
<feComposite in2="hardAlpha" operator="out"/>
<feColorMatrix type="matrix" values="0 0 0 0 0 0 0 0 0 0 0 0 0 0 0 0 0 0 0.25 0"/>
<feBlend mode="normal" in2="BackgroundImageFix" result="effect1_dropShadow_92_5604"/>
<feBlend mode="normal" in="SourceGraphic" in2="effect1_dropShadow_92_5604" result="shape"/>
</filter>
</defs>
</svg>
