<svg width="512" height="512" viewBox="0 0 512 512" fill="none" xmlns="http://www.w3.org/2000/svg">
<g clip-path="url(#clip0_531_5636)">
<path d="M512 240C512 354.9 397.4 448 256 448C218.9 448 183.7 441.6 151.9 430.1C140 438.8 120.6 450.7 97.6004 460.7C73.6004 471.1 44.7004 480 16.0004 480C9.50036 480 3.70036 476.1 1.20036 470.1C-1.29964 464.1 0.100358 457.3 4.60036 452.7L4.90036 452.4C5.20036 452.1 5.60036 451.7 6.20036 451C7.30036 449.8 9.00036 447.9 11.1004 445.3C15.2004 440.3 20.7004 432.9 26.3004 423.7C36.3004 407.1 45.8004 385.3 47.7004 360.8C17.7004 326.8 0.000358226 285.1 0.000358226 240C0.000358226 125.1 114.6 32 256 32C397.4 32 512 125.1 512 240Z" fill="#4880EE"/>
</g>
<defs>
<clipPath id="clip0_531_5636">
<rect width="512" height="512" fill="white"/>
</clipPath>
</defs>
</svg>
