<svg width="512" height="512" viewBox="0 0 512 512" fill="none" xmlns="http://www.w3.org/2000/svg">
<rect width="512" height="512" rx="256" fill="#EAF3FE"/>
<g clip-path="url(#clip0_532_5700)">
<path d="M275.312 50V69.3125V102.707C345.159 111.398 400.602 166.841 409.293 236.688H442.688H462V275.312H442.688H409.293C400.602 345.159 345.159 400.602 275.312 409.293V442.688V462H236.688V442.688V409.293C166.841 400.602 111.398 345.159 102.707 275.312H69.3125H50V236.688H69.3125H102.707C111.398 166.841 166.841 111.398 236.688 102.707V69.3125V50H275.312ZM140.125 256C140.125 286.732 152.333 316.205 174.064 337.936C195.795 359.667 225.268 371.875 256 371.875C286.732 371.875 316.205 359.667 337.936 337.936C359.667 316.205 371.875 286.732 371.875 256C371.875 225.268 359.667 195.795 337.936 174.064C316.205 152.333 286.732 140.125 256 140.125C225.268 140.125 195.795 152.333 174.064 174.064C152.333 195.795 140.125 225.268 140.125 256ZM294.625 256C294.625 245.756 290.556 235.932 283.312 228.688C276.068 221.444 266.244 217.375 256 217.375C245.756 217.375 235.932 221.444 228.688 228.688C221.444 235.932 217.375 245.756 217.375 256C217.375 266.244 221.444 276.068 228.688 283.312C235.932 290.556 245.756 294.625 256 294.625C266.244 294.625 276.068 290.556 283.312 283.312C290.556 276.068 294.625 266.244 294.625 256ZM178.75 256C178.75 235.512 186.889 215.863 201.376 201.376C215.863 186.889 235.512 178.75 256 178.75C276.488 178.75 296.137 186.889 310.624 201.376C325.111 215.863 333.25 235.512 333.25 256C333.25 276.488 325.111 296.137 310.624 310.624C296.137 325.111 276.488 333.25 256 333.25C235.512 333.25 215.863 325.111 201.376 310.624C186.889 296.137 178.75 276.488 178.75 256Z" fill="#4880EE"/>
</g>
<defs>
<clipPath id="clip0_532_5700">
<rect width="412" height="412" fill="white" transform="translate(50 50)"/>
</clipPath>
</defs>
</svg>
