<svg width="512" height="512" viewBox="0 0 512 512" fill="none" xmlns="http://www.w3.org/2000/svg">
<g clip-path="url(#clip0_533_5740)">
<path d="M464 256C464 200.835 442.086 147.929 403.078 108.922C364.071 69.9142 311.165 48 256 48C200.835 48 147.929 69.9142 108.922 108.922C69.9142 147.929 48 200.835 48 256C48 311.165 69.9142 364.071 108.922 403.078C147.929 442.086 200.835 464 256 464C311.165 464 364.071 442.086 403.078 403.078C442.086 364.071 464 311.165 464 256ZM0 256C0 188.105 26.9714 122.99 74.9807 74.9807C122.99 26.9714 188.105 0 256 0C323.895 0 389.01 26.9714 437.019 74.9807C485.029 122.99 512 188.105 512 256C512 323.895 485.029 389.01 437.019 437.019C389.01 485.029 323.895 512 256 512C188.105 512 122.99 485.029 74.9807 437.019C26.9714 389.01 0 323.895 0 256ZM256 224C264.487 224 272.626 227.371 278.627 233.373C284.629 239.374 288 247.513 288 256C288 264.487 284.629 272.626 278.627 278.627C272.626 284.629 264.487 288 256 288C247.513 288 239.374 284.629 233.373 278.627C227.371 272.626 224 264.487 224 256C224 247.513 227.371 239.374 233.373 233.373C239.374 227.371 247.513 224 256 224ZM224 160C224 151.513 227.371 143.374 233.373 137.373C239.374 131.371 247.513 128 256 128C264.487 128 272.626 131.371 278.627 137.373C284.629 143.374 288 151.513 288 160C288 168.487 284.629 176.626 278.627 182.627C272.626 188.629 264.487 192 256 192C247.513 192 239.374 188.629 233.373 182.627C227.371 176.626 224 168.487 224 160ZM256 320C264.487 320 272.626 323.371 278.627 329.373C284.629 335.374 288 343.513 288 352C288 360.487 284.629 368.626 278.627 374.627C272.626 380.629 264.487 384 256 384C247.513 384 239.374 380.629 233.373 374.627C227.371 368.626 224 360.487 224 352C224 343.513 227.371 335.374 233.373 329.373C239.374 323.371 247.513 320 256 320Z" fill="#9E9EA3"/>
</g>
<defs>
<clipPath id="clip0_533_5740">
<rect width="512" height="512" fill="white"/>
</clipPath>
</defs>
</svg>
