<svg width="448" height="512" viewBox="0 0 448 512" fill="none" xmlns="http://www.w3.org/2000/svg">
<path d="M448 96C448 78.3 433.7 64 416 64H32C14.3 64 0 78.3 0 96C0 113.7 14.3 128 32 128H416C433.7 128 448 113.7 448 96ZM448 416C448 398.3 433.7 384 416 384H32C14.3 384 0 398.3 0 416C0 433.7 14.3 448 32 448H416C433.7 448 448 433.7 448 416Z" fill="white"/>
<path opacity="0.4" d="M0 256C0 238.3 14.3 224 32 224H416C433.7 224 448 238.3 448 256C448 273.7 433.7 288 416 288H32C14.3 288 0 273.7 0 256Z" fill="#9E9EA3"/>
</svg>
