<svg width="320" height="512" viewBox="0 0 320 512" fill="none" xmlns="http://www.w3.org/2000/svg">
<path d="M64 144C64 118.539 74.1143 94.1212 92.1178 76.1178C110.121 58.1143 134.539 48 160 48C185.461 48 209.879 58.1143 227.882 76.1178C245.886 94.1212 256 118.539 256 144C256 169.461 245.886 193.879 227.882 211.882C209.879 229.886 185.461 240 160 240C134.539 240 110.121 229.886 92.1178 211.882C74.1143 193.879 64 169.461 64 144ZM184 286C252.1 274.6 304 215.3 304 144C304 64.5 239.5 0 160 0C80.5 0 16 64.5 16 144C16 215.4 67.9 274.6 136 286V488C136 501.3 146.7 512 160 512C173.3 512 184 501.3 184 488V286Z" fill="white"/>
</svg>
