<svg width="512" height="512" viewBox="0 0 512 512" fill="none" xmlns="http://www.w3.org/2000/svg">
<g clip-path="url(#clip0_531_5648)">
<path d="M368 208C368 165.565 351.143 124.869 321.137 94.8629C291.131 64.8571 250.435 48 208 48C165.565 48 124.869 64.8571 94.8629 94.8629C64.8571 124.869 48 165.565 48 208C48 250.435 64.8571 291.131 94.8629 321.137C124.869 351.143 165.565 368 208 368C250.435 368 291.131 351.143 321.137 321.137C351.143 291.131 368 250.435 368 208ZM337.1 371.1C301.7 399.2 256.8 416 208 416C93.1 416 0 322.9 0 208C0 93.1 93.1 0 208 0C322.9 0 416 93.1 416 208C416 256.8 399.2 301.7 371.1 337.1L505 471C514.4 480.4 514.4 495.6 505 504.9C495.6 514.2 480.4 514.3 471.1 504.9L337.1 371.1Z" fill="white"/>
</g>
<defs>
<clipPath id="clip0_531_5648">
<rect width="512" height="512" fill="white"/>
</clipPath>
</defs>
</svg>
