<svg width="448" height="512" viewBox="0 0 448 512" fill="none" xmlns="http://www.w3.org/2000/svg">
<g clip-path="url(#clip0_531_5652)">
<path d="M304 128C304 106.783 295.571 86.4344 280.569 71.4315C265.566 56.4285 245.217 48 224 48C202.783 48 182.434 56.4285 167.431 71.4315C152.429 86.4344 144 106.783 144 128C144 149.217 152.429 169.566 167.431 184.569C182.434 199.571 202.783 208 224 208C245.217 208 265.566 199.571 280.569 184.569C295.571 169.566 304 149.217 304 128ZM96 128C96 94.0523 109.486 61.495 133.49 37.4903C157.495 13.4857 190.052 0 224 0C257.948 0 290.505 13.4857 314.51 37.4903C338.514 61.495 352 94.0523 352 128C352 161.948 338.514 194.505 314.51 218.51C290.505 242.514 257.948 256 224 256C190.052 256 157.495 242.514 133.49 218.51C109.486 194.505 96 161.948 96 128ZM49.3 464H398.7C389.8 400.7 335.4 352 269.7 352H178.3C112.6 352 58.2 400.7 49.3 464ZM0 482.3C0 383.8 79.8 304 178.3 304H269.7C368.2 304 448 383.8 448 482.3C448 498.7 434.7 512 418.3 512H29.7C13.3 512 0 498.7 0 482.3Z" fill="white"/>
</g>
<defs>
<clipPath id="clip0_531_5652">
<rect width="448" height="512" fill="white"/>
</clipPath>
</defs>
</svg>
