<svg width="448" height="512" viewBox="0 0 448 512" fill="none" xmlns="http://www.w3.org/2000/svg">
<g clip-path="url(#clip0_531_5597)">
<path d="M224 0C206.3 0 192 14.3 192 32V49.9C119.5 61.4 64.0001 124.2 64.0001 200V233.4C64.0001 278.8 48.5001 322.9 20.2001 358.3L5.3001 377C-0.4999 384.2 -1.5999 394.1 2.4001 402.4C6.4001 410.7 14.8001 416 24.0001 416H424C433.2 416 441.6 410.7 445.6 402.4C449.6 394.1 448.5 384.2 442.7 377L427.8 358.4C399.5 322.9 384 278.8 384 233.4V200C384 124.2 328.5 61.4 256 49.9V32C256 14.3 241.7 0 224 0ZM224 96H232C289.4 96 336 142.6 336 200V233.4C336 281.3 349.9 328 375.7 368H72.3001C98.1001 328 112 281.3 112 233.4V200C112 142.6 158.6 96 216 96H224ZM288 448H224H160C160 465 166.7 481.3 178.7 493.3C190.7 505.3 207 512 224 512C241 512 257.3 505.3 269.3 493.3C281.3 481.3 288 465 288 448Z" fill="#6D7582"/>
</g>
<defs>
<clipPath id="clip0_531_5597">
<rect width="448" height="512" fill="white"/>
</clipPath>
</defs>
</svg>
