<svg width="448" height="512" viewBox="0 0 448 512" fill="none" xmlns="http://www.w3.org/2000/svg">
<g clip-path="url(#clip0_531_5603)">
<path d="M223.999 0C206.299 0 191.999 14.3 191.999 32V49.9C119.499 61.4 63.9991 124.2 63.9991 200V233.4C63.9991 278.8 48.4991 322.9 20.1991 358.3L5.29912 377C-0.500877 384.2 -1.60088 394.1 2.39912 402.4C6.39912 410.7 14.7991 416 23.9991 416H423.999C433.199 416 441.599 410.7 445.599 402.4C449.599 394.1 448.499 384.2 442.699 377L427.799 358.4C399.499 322.9 383.999 278.8 383.999 233.4V200C383.999 124.2 328.499 61.4 255.999 49.9V32C255.999 14.3 241.699 0 223.999 0ZM223.999 96H231.999C289.399 96 335.999 142.6 335.999 200V233.4C335.999 281.3 349.899 328 375.699 368H72.2991C98.0991 328 111.999 281.3 111.999 233.4V200C111.999 142.6 158.599 96 215.999 96H223.999ZM287.999 448H223.999H159.999C159.999 465 166.699 481.3 178.699 493.3C190.699 505.3 206.999 512 223.999 512C240.999 512 257.299 505.3 269.299 493.3C281.299 481.3 287.999 465 287.999 448Z" fill="#1A1E27"/>
</g>
<defs>
<clipPath id="clip0_531_5603">
<rect width="448" height="512" fill="white"/>
</clipPath>
</defs>
</svg>
