<svg width="384" height="512" viewBox="0 0 384 512" fill="none" xmlns="http://www.w3.org/2000/svg">
<g clip-path="url(#clip0_532_5682)">
<path d="M378.4 71.4001C386.9 61.3001 385.6 46.1001 375.5 37.6001C365.4 29.1001 350.2 30.4001 341.7 40.5001L192 218.7L42.4001 40.6001C33.9001 30.4001 18.7001 29.1001 8.60006 37.6001C-1.49994 46.1001 -2.89994 61.3001 5.60006 71.4001L160.7 256L5.60006 440.6C-2.89994 450.8 -1.59994 465.9 8.50006 474.4C18.6001 482.9 33.8001 481.6 42.3001 471.5L192 293.3L341.6 471.4C350.1 481.5 365.3 482.9 375.4 474.3C385.5 465.7 386.9 450.6 378.3 440.5L223.3 256L378.3 71.4001H378.4Z" fill="#1A1E27"/>
</g>
<defs>
<clipPath id="clip0_532_5682">
<rect width="384" height="512" fill="white"/>
</clipPath>
</defs>
</svg>
