<svg width="512" height="512" viewBox="0 0 512 512" fill="none" xmlns="http://www.w3.org/2000/svg">
<g clip-path="url(#clip0_531_5578)">
<path d="M256 512C323.895 512 389.01 485.029 437.019 437.019C485.029 389.01 512 323.895 512 256C512 188.105 485.029 122.99 437.019 74.9807C389.01 26.9714 323.895 0 256 0C188.105 0 122.99 26.9714 74.9807 74.9807C26.9714 122.99 0 188.105 0 256C0 323.895 26.9714 389.01 74.9807 437.019C122.99 485.029 188.105 512 256 512ZM164.1 325.5C182 346.2 212.6 368 256 368C299.4 368 330 346.2 347.9 325.5C353.7 318.8 363.8 318.1 370.5 323.9C377.2 329.7 377.9 339.8 372.1 346.5C349.8 372.1 311.1 400 256 400C200.9 400 162.2 372.1 139.9 346.5C134.1 339.8 134.8 329.7 141.5 323.9C148.2 318.1 158.3 318.8 164.1 325.5ZM144.4 208C144.4 199.513 147.771 191.374 153.773 185.373C159.774 179.371 167.913 176 176.4 176C184.887 176 193.026 179.371 199.027 185.373C205.029 191.374 208.4 199.513 208.4 208C208.4 216.487 205.029 224.626 199.027 230.627C193.026 236.629 184.887 240 176.4 240C167.913 240 159.774 236.629 153.773 230.627C147.771 224.626 144.4 216.487 144.4 208ZM336.4 176C344.887 176 353.026 179.371 359.027 185.373C365.029 191.374 368.4 199.513 368.4 208C368.4 216.487 365.029 224.626 359.027 230.627C353.026 236.629 344.887 240 336.4 240C327.913 240 319.774 236.629 313.773 230.627C307.771 224.626 304.4 216.487 304.4 208C304.4 199.513 307.771 191.374 313.773 185.373C319.774 179.371 327.913 176 336.4 176Z" fill="#4880EE"/>
</g>
<defs>
<clipPath id="clip0_531_5578">
<rect width="512" height="512" fill="white"/>
</clipPath>
</defs>
</svg>
